<svg id="Capa_1" data-name="Capa 1" xmlns="http://www.w3.org/2000/svg"
    xmlns:xlink="http://www.w3.org/1999/xlink" viewBox="0 0 644.16 707.32">
    <defs>
        <style>
            .cls-1{fill:none;}.cls-2{clip-path:url(#clip-path);}.cls-3{fill:#0dac4b;}.cls-4{fill:#fff;}</style>
        <clipPath id="clip-path" transform="translate(-637.92 -139.84)">
            <rect class="cls-1" width="1920" height="1080" />
        </clipPath>
    </defs>
    <title>legen logo chico</title>
    <g class="cls-2">
        <path class="cls-3"
            d="M656.92,301.28l282.49-156.8a36.93,36.93,0,0,1,36.76.53L1264,315.77a36.93,36.93,0,0,1,18.08,31.76L1282,635.47a36.93,36.93,0,0,1-17.33,31.29L985.4,841.54a36.93,36.93,0,0,1-36.86,1.33L658,689.12a36.92,36.92,0,0,1-19.65-32.58l-0.46-322.92a36.92,36.92,0,0,1,19-32.34"
            transform="translate(-637.92 -139.84)" />
        <path class="cls-4"
            d="M1176.68,527a13.55,13.55,0,0,0-9.53-3.76l-34.22.75A13.23,13.23,0,0,0,1120,537.48l0.9,47.74L960,679.68,800.18,586.32V400.67L960,310.61l157.89,90.21a13.28,13.28,0,0,0,13.09,0l33.33-18.94a13.21,13.21,0,0,0,.21-22.86L966.17,241.46a13.24,13.24,0,0,0-13.46,0L745.84,363.64a13.28,13.28,0,0,0-6.5,11.38V613a13.27,13.27,0,0,0,6.55,11.41L953.36,745.59a13.26,13.26,0,0,0,13.29,0l207.41-120.05a13.25,13.25,0,0,0,6.6-11.44V536.48a13.11,13.11,0,0,0-4-9.45"
            transform="translate(-637.92 -139.84)" />
        <path class="cls-4"
            d="M946.66,623.84l132.27-75.62-0.82-42.43a12.47,12.47,0,0,0-18.63-10.63L955.2,554.51a16.23,16.23,0,0,0-8.2,14Z"
            transform="translate(-637.92 -139.84)" />
    </g>
</svg>