<svg id="Capa_1" data-name="Capa 1" xmlns="http://www.w3.org/2000/svg" viewBox="0 0 461 79.2" fill="#fff">
    <title>inase</title>
    <path
        d="M118.67,254.9q0,9.3,0,18.6c0,6.38-1.4,7.79-7.74,7.79q-41.23,0-82.46,0a19.22,19.22,0,0,1-5-.71c-2.64-.73-4-2.43-3.93-5.4,0.11-12.51.09-25,0-37.55,0-3.39,1.62-5.15,4.81-5.19,9.32-.12,18.65-0.1,28,0,3,0,4.73,1.55,4.68,4.84-0.08,5.77-.06,11.53,0,17.3,0,4.08,1.31,5.83,5.25,6.15a108.42,108.42,0,0,0,14,.13c3.35-.17,4.72-2.27,4.7-5.75-0.12-15.34-.06-30.68,0-46,0-5,1.53-6.69,6.5-6.74,8-.08,16-0.35,23.92.16a14.15,14.15,0,0,1,8.28,3.8c6.56,6.44,12.65,13.36,18.84,20.17a16.48,16.48,0,0,1,1.9,3.52l1.74-1.17c0-6.56,0-13.11,0-19.67,0-4.72,2-6.66,6.7-6.82h0.37q46.57,0,93.13,0c6.54,0,8.14,1.75,8.13,8.34q0,19.88,0,39.76c0,4.73,0,4.74,4.91,4.74,29.45,0,58.9,0,88.35.06a20.3,20.3,0,0,1,7.46,1.42,5.2,5.2,0,0,1,2.8,3.77c0,1.3-1.41,3.2-2.7,3.83a17.19,17.19,0,0,1-6.7,1.52c-5.39.21-10.8-.06-16.19,0.18-1.23.06-2.39,1.43-3.58,2.2,1.15,0.7,2.28,2,3.45,2,6.86,0.18,13.74.25,20.6,0a13.63,13.63,0,0,0,6.1-2.26c6.23-3.81,6.64-9.37,1.11-14.06-1.76-1.49-3.9-2.53-5.79-3.88a53.17,53.17,0,0,1-6.06-4.71c-2-1.92-3.05-4.68-1.38-7s4.18-3.91,6.5-5.58c0.42-.3,1.79.47,2.58,1,9.3,5.94,18.57,11.94,27.87,17.88a6.88,6.88,0,0,1,3.47,6.37c0.05,13,.09,12.94-11,19.91a23,23,0,0,1-12.81,3.63c-45.28-.13-90.55-0.08-135.83-0.09a24.28,24.28,0,0,1-4.4-.22c-4.31-.8-5.62-2.31-5.67-6.74-0.06-5.64-.19-11.3.16-16.93,0.2-3.23-1.12-4.58-4-5a49.07,49.07,0,0,0-5.49-.36c-4.29-.09-8.59,0-12.88-0.21-3.25-.17-5.19-1.88-5.07-5.45,0.1-2.94.11-5.89,0-8.83-0.14-3.59,1.65-5.25,5-5.31,5-.09,10.06-0.06,15.09-0.07a19.51,19.51,0,0,0,2.57,0c2.51-.35,4.51-1.31,4.54-4.31s-1.72-4.66-4.52-4.7c-8.22-.14-16.44-0.19-24.66,0-3.55.09-4.85,2-4.87,6.42,0,13.62,0,27.24,0,40.86,0,10.81,0,10.8-10.7,10.81-5.89,0-11.78-.09-17.67.08a11.73,11.73,0,0,1-9.48-3.93c-6.27-6.73-12.67-13.35-19-20.06a26.35,26.35,0,0,1-2.3-3.33Z"
        transform="translate(-19.5 -202.18)" />
    <path
        d="M379.28,202.84h93.86c7,0,7.31.35,7.32,7.27,0,2.21,0,4.42,0,6.63,0,5.73-.77,6.5-6.66,6.52-10.43,0-20.86,0-31.29,0a17.71,17.71,0,0,0-3.3.1c-2.51.48-5.05,1.38-4.93,4.47,0.12,2.91,2.49,4.09,5.06,4.47a35.63,35.63,0,0,0,5.15.1c4.66,0,9.33-.06,14,0,3.86,0.08,5,1.26,5.08,5.15q0.11,4.78,0,9.57c-0.09,4-1.32,5.3-5.33,5.38-5.76.12-11.53,0-17.3,0-4.39,0-6.83,1.48-6.78,4s2.78,4.3,6.79,4.33c11,0.09,22.08,0,33.13,0,5.67,0,6.37.73,6.4,6.37,0,2.58-.12,5.16,0,7.73,0.18,3.32-1.45,5.05-4.54,5.59a32.32,32.32,0,0,1-5.45.61q-32.94.06-65.89,0c-6.88,0-7.93-1.05-7.93-7.78q0-18.22,0-36.44c0-6.35-1.89-8.36-8.31-8.4-12.51-.08-25,0-37.54,0-15.46,0-30.92.07-46.38-.07a25.12,25.12,0,0,1-8.18-1.56,4.67,4.67,0,0,1-2.48-3.55,5,5,0,0,1,2.48-3.59,16,16,0,0,1,6.32-1.49c5.39-.2,10.8.07,16.19-0.17,1.4-.06,2.74-1.34,4.11-2.05-1.34-.78-2.65-2.19-4-2.24a125.63,125.63,0,0,0-18,.06,23.38,23.38,0,0,0-10.42,3.81c-4.36,3-4.19,8.19-.11,11.62,2.33,2,5.08,3.42,7.57,5.19,1.79,1.27,4,2.38,5,4.16,1.12,2,2.15,5.27,1.26,7-1.29,2.46-4.27,4.09-6.67,5.88-0.34.26-1.54-.45-2.24-0.88-9.36-5.85-18.68-11.76-28-17.59a6.45,6.45,0,0,1-3.32-6c-0.08-13.15,0-13,10.75-20.33a22.82,22.82,0,0,1,13.72-4C318.67,202.92,349,202.83,379.28,202.84Z"
        transform="translate(-19.5 -202.18)" />
    <path
        d="M37.59,223.14c-4.17,0-8.33.09-12.5,0s-5.44-1.56-5.47-5.63c0-3.19.18-6.39-.06-9.55-0.27-3.67,1.64-5.44,4.85-5.51,9.31-.19,18.62-0.16,27.93,0,3.06,0,5,1.54,4.68,5.14-0.25,2.92,0,5.88,0,8.82-0.05,4.91-1.61,6.59-6.55,6.75C46.17,223.25,41.88,223.14,37.59,223.14Z"
        transform="translate(-19.5 -202.18)" />
    <path
        d="M332.55,240.79c-3.86,0-7.09-2-7.18-4.45s3.32-4.66,7.36-4.63,7.08,2,7.15,4.44S336.63,240.84,332.55,240.79Z"
        transform="translate(-19.5 -202.18)" />
    <path
        d="M314.24,240.79c-4.07,0-7.4-2.1-7.33-4.64s3.5-4.52,7.52-4.43,7,2.07,6.88,4.63S318.16,240.79,314.24,240.79Z"
        transform="translate(-19.5 -202.18)" />
    <path
        d="M314.7,252.67c-4.56,0-7.81-1.91-7.79-4.48s4.26-5.06,8.16-4.57a3.55,3.55,0,0,1,1.76.45c1.55,1.31,3.94,2.57,4.26,4.19,0.55,2.82-2.31,3.59-4.58,4.25A7.8,7.8,0,0,1,314.7,252.67Z"
        transform="translate(-19.5 -202.18)" />
    <path
        d="M332.76,252.68c-4.12,0-7.39-2-7.39-4.46s4.22-5.06,8.08-4.63a10.37,10.37,0,0,1,1.42.33c2.43,0.63,5.08,1.38,4.9,4.44s-3,3.79-5.56,4.24A11.13,11.13,0,0,1,332.76,252.68Z"
        transform="translate(-19.5 -202.18)" />
</svg>