<svg id="Capa_1" data-name="Capa 1" xmlns="http://www.w3.org/2000/svg" viewBox="0 0 1686.57 314.93"><defs><style>.cls-1{fill:#0dac4b;}</style></defs><title>IsoMasLegen</title><path class="cls-1" d="M537.35,662.43q-4.82,0-7.44-2.84a10.23,10.23,0,0,1-2.63-7.22V366.31a10.25,10.25,0,0,1,2.63-7.22q2.62-2.84,7.44-2.84h23.18a9.08,9.08,0,0,1,7,2.84,10.25,10.25,0,0,1,2.63,7.22V624.38H715.8q4.81,0,7.44,2.84a10.86,10.86,0,0,1,2.63,7.65v17.5a10.23,10.23,0,0,1-2.63,7.22q-2.62,2.84-7.44,2.84H537.35Z" transform="translate(-139.79 -351.88)"/><path class="cls-1" d="M783.6,662.43q-4.82,0-7.44-2.84a10.23,10.23,0,0,1-2.63-7.22V366.75a10.86,10.86,0,0,1,2.63-7.66q2.62-2.84,7.44-2.84H964.25a9.63,9.63,0,0,1,7.43,2.84,10.84,10.84,0,0,1,2.63,7.66v16.62q0,4.82-2.63,7.44t-7.43,2.63H815.52v95.79h139.1q4.8,0,7.43,2.84a10.84,10.84,0,0,1,2.63,7.66V515.9a10.2,10.2,0,0,1-2.63,7.22c-1.75,1.9-4.23,2.84-7.43,2.84H815.52v99.29H967.74q4.81,0,7.44,2.63t2.63,7.43v17.06a10.23,10.23,0,0,1-2.63,7.22q-2.62,2.84-7.44,2.84H783.6Z" transform="translate(-139.79 -351.88)"/><path class="cls-1" d="M1146.64,666.81q-38.5,0-65.39-14.43a98.75,98.75,0,0,1-41.12-40.68q-14.21-26.24-16-61.67-0.44-19.24-.43-40.9t0.43-41.34q1.74-35.43,16-61.23t41.34-40.24q27.12-14.44,65.17-14.44,31.05,0,53.8,8.75t37.4,22.09q14.65,13.35,21.87,27.78t7.65,25.37a7.06,7.06,0,0,1-2.19,6.34,10,10,0,0,1-7,2.41h-25.8q-4.38,0-6.35-1.75a16.34,16.34,0,0,1-3.72-6.13,73.18,73.18,0,0,0-12.9-22.31q-9-10.92-24.06-18.15t-38.71-7.22q-34.56,0-55.77,18.81t-23,62.11q-1.31,38.94,0,77.86,1.74,43.74,23.18,62.77t56,19q23.18,0,41.33-8.53a64.35,64.35,0,0,0,28.65-26.46q10.5-17.93,10.5-45.49V530.78h-65.61a9.75,9.75,0,0,1-7.22-2.84,10.33,10.33,0,0,1-2.84-7.66v-14a10.35,10.35,0,0,1,2.84-7.66,9.78,9.78,0,0,1,7.22-2.84h98.85q4.81,0,7.44,2.84a10.88,10.88,0,0,1,2.63,7.66v42q0,35.87-14.66,62.55t-42.65,41.33q-28,14.66-66.92,14.65" transform="translate(-139.79 -351.88)"/><path class="cls-1" d="M1343.47,662.43q-4.82,0-7.44-2.84a10.23,10.23,0,0,1-2.63-7.22V366.75a10.86,10.86,0,0,1,2.63-7.66q2.62-2.84,7.44-2.84h180.65a9.63,9.63,0,0,1,7.43,2.84,10.84,10.84,0,0,1,2.63,7.66v16.62q0,4.82-2.63,7.44t-7.43,2.63H1375.4v95.79h139.1q4.8,0,7.43,2.84a10.84,10.84,0,0,1,2.63,7.66V515.9a10.2,10.2,0,0,1-2.63,7.22c-1.75,1.9-4.23,2.84-7.43,2.84H1375.4v99.29h152.22q4.81,0,7.44,2.63t2.63,7.43v17.06a10.23,10.23,0,0,1-2.63,7.22q-2.62,2.84-7.44,2.84H1343.47Z" transform="translate(-139.79 -351.88)"/><path class="cls-1" d="M1608.53,662.43q-4.82,0-7.44-2.84a10.23,10.23,0,0,1-2.63-7.22V366.75a10.86,10.86,0,0,1,2.63-7.66q2.62-2.84,7.44-2.84h20.12c3.5,0,6.12.81,7.88,2.41a11.31,11.31,0,0,1,3.06,3.72L1784.8,585.46V366.75a10.86,10.86,0,0,1,2.63-7.66,9.63,9.63,0,0,1,7.44-2.84h21a9.8,9.8,0,0,1,10.5,10.5V651.93a10.53,10.53,0,0,1-2.84,7.44,9.41,9.41,0,0,1-7.22,3.06h-21q-4.82,0-7.22-2.63t-3.28-3.5L1640,435.42v217a9.78,9.78,0,0,1-2.84,7.22,10.35,10.35,0,0,1-7.66,2.84h-21Z" transform="translate(-139.79 -351.88)"/><path class="cls-1" d="M410.9,530.13A8.42,8.42,0,0,0,405,527.8l-21.21.47a8.2,8.2,0,0,0-8,8.35l0.56,29.6-99.75,58.56L177.5,566.88V451.8L276.57,396l97.88,55.92a8.22,8.22,0,0,0,8.11,0l20.67-11.74a8.19,8.19,0,0,0,.13-14.17l-123-72.89a8.21,8.21,0,0,0-8.35,0L143.81,428.84a8.24,8.24,0,0,0-4,7.05V583.44a8.23,8.23,0,0,0,4.06,7.07l128.61,75.11a8.23,8.23,0,0,0,8.24,0l128.58-74.42a8.22,8.22,0,0,0,4.09-7.09V536a8.12,8.12,0,0,0-2.46-5.86" transform="translate(-139.79 -351.88)"/><path class="cls-1" d="M268.31,590.14l82-46.88L349.8,517a7.73,7.73,0,0,0-11.55-6.59l-64.64,36.8a10.06,10.06,0,0,0-5.08,8.69Z" transform="translate(-139.79 -351.88)"/></svg>