<svg id="Capa_1" data-name="Capa 1" xmlns="http://www.w3.org/2000/svg" xmlns:xlink="http://www.w3.org/1999/xlink" viewBox="0 0 439.52 112.41"><defs><style>.cls-1{fill:none;}.cls-2{clip-path:url(#clip-path);}.cls-3{fill:#fff;}</style><clipPath id="clip-path" transform="translate(-740.24 -485.67)"><rect class="cls-1" width="1920" height="1080"/></clipPath></defs><title>legen logo</title><g class="cls-2"><path class="cls-3" d="M743.65,593.67a3.25,3.25,0,0,1-2.52-1,3.46,3.46,0,0,1-.89-2.44V493.49a3.47,3.47,0,0,1,.89-2.44,3.26,3.26,0,0,1,2.52-1h7.84a3.07,3.07,0,0,1,2.37,1,3.47,3.47,0,0,1,.89,2.44V580.8H804a3.26,3.26,0,0,1,2.51,1,3.67,3.67,0,0,1,.89,2.59v5.92a3.45,3.45,0,0,1-.89,2.44,3.25,3.25,0,0,1-2.51,1H743.65Z" transform="translate(-740.24 -485.67)"/><path class="cls-3" d="M827,593.67a3.25,3.25,0,0,1-2.52-1,3.46,3.46,0,0,1-.89-2.44V493.63a3.67,3.67,0,0,1,.89-2.59,3.26,3.26,0,0,1,2.52-1h61.12a3.26,3.26,0,0,1,2.51,1,3.67,3.67,0,0,1,.89,2.59v5.62a3.09,3.09,0,0,1-3.4,3.4H837.76v32.41h47.06a3.26,3.26,0,0,1,2.52,1,3.67,3.67,0,0,1,.89,2.59v5.47a3.45,3.45,0,0,1-.89,2.44,3.25,3.25,0,0,1-2.52,1H837.76v33.59h51.5a3.09,3.09,0,0,1,3.4,3.4v5.77a3.46,3.46,0,0,1-.89,2.44,3.25,3.25,0,0,1-2.52,1H827Z" transform="translate(-740.24 -485.67)"/><path class="cls-3" d="M1016.38,593.67a3.25,3.25,0,0,1-2.52-1,3.46,3.46,0,0,1-.89-2.44V493.63a3.68,3.68,0,0,1,.89-2.59,3.26,3.26,0,0,1,2.52-1h61.12a3.26,3.26,0,0,1,2.52,1,3.68,3.68,0,0,1,.89,2.59v5.62a3.09,3.09,0,0,1-3.4,3.4h-50.32v32.41h47.06a3.26,3.26,0,0,1,2.52,1,3.68,3.68,0,0,1,.89,2.59v5.47a3.46,3.46,0,0,1-.89,2.44,3.25,3.25,0,0,1-2.52,1h-47.06v33.59h51.5a3.09,3.09,0,0,1,3.4,3.4v5.77a3.46,3.46,0,0,1-.89,2.44,3.25,3.25,0,0,1-2.52,1h-62.3Z" transform="translate(-740.24 -485.67)"/><path class="cls-3" d="M1106.06,593.67a3.25,3.25,0,0,1-2.52-1,3.46,3.46,0,0,1-.89-2.44V493.63a3.67,3.67,0,0,1,.89-2.59,3.26,3.26,0,0,1,2.52-1h6.81a3.84,3.84,0,0,1,3.7,2.07l49.13,75.47v-74a3.67,3.67,0,0,1,.89-2.59,3.25,3.25,0,0,1,2.52-1h7.1a3.32,3.32,0,0,1,3.55,3.55v96.49a3.56,3.56,0,0,1-1,2.52,3.19,3.19,0,0,1-2.44,1h-7.1a3.15,3.15,0,0,1-2.44-.89c-0.54-.59-0.91-1-1.11-1.18l-49-74.73v73.4a3.31,3.31,0,0,1-1,2.44,3.49,3.49,0,0,1-2.59,1h-7.1Z" transform="translate(-740.24 -485.67)"/><path class="cls-3" d="M1000.25,549.3a3,3,0,0,0-2.11-.83l-7.58.16a2.93,2.93,0,0,0-2.86,3l0.2,10.57-35.62,20.91L916.9,562.43v-41.1l35.38-19.94,35,20a2.94,2.94,0,0,0,2.9,0l7.38-4.19a2.93,2.93,0,0,0,0-5.06l-43.91-26a2.93,2.93,0,0,0-3,0l-45.79,27a2.94,2.94,0,0,0-1.44,2.52v52.69a2.94,2.94,0,0,0,1.45,2.53l45.93,26.82a2.94,2.94,0,0,0,2.94,0l45.92-26.58a2.93,2.93,0,0,0,1.46-2.53V551.39a2.9,2.9,0,0,0-.88-2.09" transform="translate(-740.24 -485.67)"/><path class="cls-3" d="M949.32,570.73L978.61,554l-0.18-9.39a2.76,2.76,0,0,0-4.13-2.35l-23.08,13.14a3.59,3.59,0,0,0-1.82,3.1Z" transform="translate(-740.24 -485.67)"/></g></svg>